<?xml version="1.0" encoding="UTF-8" standalone="no"?>
<!-- Created with Inkscape (http://www.inkscape.org/) -->

<svg
   xmlns:dc="http://purl.org/dc/elements/1.1/"
   xmlns:cc="http://creativecommons.org/ns#"
   xmlns:rdf="http://www.w3.org/1999/02/22-rdf-syntax-ns#"
   xmlns:svg="http://www.w3.org/2000/svg"
   xmlns="http://www.w3.org/2000/svg"
   xmlns:inkscape="http://www.inkscape.org/namespaces/inkscape"
   version="1.1"
   width="570"
   height="81.25"
   id="svg2"
   xml:space="preserve"><metadata
     id="metadata8"><rdf:RDF><cc:Work
         rdf:about=""><dc:format>image/svg+xml</dc:format><dc:type
           rdf:resource="http://purl.org/dc/dcmitype/StillImage" /></cc:Work></rdf:RDF></metadata><defs
     id="defs6" /><g
     transform="matrix(1.25,0,0,-1.25,0,81.25)"
     id="g10"><g
       transform="scale(0.1,0.1)"
       id="g12"><path
         d="m 375.621,173.559 -106.012,106.062 0.27,-269.6093 125.242,0 -19.5,163.5473 M 478.789,283.988 368.672,394.07 392.461,184.031 531.371,46.0195 478.789,283.988 M 348.91,413.84 l -79.301,79.289 0,-185.348 102.27,-103.121 -22.969,209.18 m 87.731,61.012 -86.289,86.289 15.386,-135.981 105.16,-105.148 -34.257,154.84 M 330,581.77 l -60.391,60.109 0,-120.539 75.512,-76.141 L 330,581.77 m 208.91,-571.7583 -126.101,0 L 396.25,152.941 538.91,10.0117"
         inkscape:connector-curvature="0"
         id="path14"
         style="fill:#eb9c17;fill-opacity:1;fill-rule:evenodd;stroke:none" /><path
         d="m 162.379,173.559 106.922,106.062 0.308,-269.6093 -126.41,0 19.18,163.5473 M 60.4297,283.988 169.379,394.07 145.82,184.031 7.53906,46.0195 60.4297,283.988 M 190,413.84 l 79.301,79.289 0,-185.348 L 166.449,204.66 190,413.84 m -87.73,61.012 86.281,86.289 L 173.121,425.16 67.9688,320.012 102.27,474.852 M 0,10.0117 l 125.512,0 L 142.621,152.941 0,10.0117 m 209.18,571.7583 60.121,60.109 0,-120.539 -75.551,-76.141 15.43,136.571"
         inkscape:connector-curvature="0"
         id="path16"
         style="fill:#919497;fill-opacity:1;fill-rule:evenodd;stroke:none" /><path
         d="m 820.469,201.648 0,73.442 c 13.32,-11.18 27.73,-19.531 43.281,-25.16 15.629,-5.621 31.41,-8.442 47.34,-8.442 9.379,0 17.5,0.821 24.379,2.5 6.953,1.762 12.812,4.102 17.5,7.032 4.691,3.011 8.16,6.57 10.472,10.628 2.258,4.063 3.438,8.442 3.438,13.122 0,6.449 -1.84,12.191 -5.469,17.191 -3.68,5.078 -8.68,9.769 -15,14.059 -6.371,4.261 -13.91,8.359 -22.66,12.351 -8.75,4.059 -18.199,8.117 -28.281,12.188 -25.739,10.703 -44.918,23.781 -57.5,39.211 -12.617,15.511 -18.91,34.218 -18.91,56.101 0,17.07 3.441,31.758 10.32,44.059 6.871,12.379 16.242,22.539 28.121,30.468 11.879,7.891 25.621,13.75 41.25,17.5 15.629,3.75 32.109,5.622 49.531,5.622 17.188,0 32.379,-1.051 45.629,-3.122 13.2,-1.988 25.39,-5.117 36.56,-9.378 l 0,-68.59 c -5.55,3.75 -11.56,7.07 -18.13,10 -6.48,2.89 -13.121,5.308 -20,7.191 -6.871,1.949 -13.75,3.359 -20.621,4.219 -6.797,0.93 -13.239,1.398 -19.379,1.398 -8.36,0 -15.93,-0.777 -22.809,-2.34 -6.871,-1.558 -12.73,-3.828 -17.5,-6.718 -4.801,-2.93 -8.511,-6.41 -11.09,-10.469 -2.5,-4.063 -3.75,-8.672 -3.75,-13.75 0,-5.43 1.399,-10.313 4.219,-14.691 2.891,-4.372 7.031,-8.551 12.34,-12.5 5.391,-3.86 11.91,-7.649 19.531,-11.399 7.699,-3.75 16.41,-7.621 26.098,-11.562 13.121,-5.547 24.883,-11.411 35.312,-17.661 10.509,-6.168 19.529,-13.128 27.029,-20.937 7.5,-7.813 13.2,-16.723 17.19,-26.723 3.94,-10 5.93,-21.679 5.93,-35 0,-18.359 -3.51,-33.75 -10.46,-46.25 -6.88,-12.5 -16.33,-22.609 -28.29,-30.308 -11.871,-7.731 -25.738,-13.239 -41.559,-16.559 -15.859,-3.441 -32.582,-5.16 -50.152,-5.16 -18.129,0 -35.32,1.559 -51.57,4.687 -16.25,3.012 -30.387,7.582 -42.34,13.75 z m 494.961,222.34 -87.34,-235 -82.66,0 -83.28,235 77.5,0 40.94,-144.84 c 4.57,-16.367 7.22,-30.269 7.96,-41.718 l 0.94,0 c 1.02,10.82 3.83,24.261 8.44,40.308 l 41.87,146.25 75.63,0 z m 242.5,-138.117 -153.44,0 c 2.5,-34.18 23.99,-51.25 64.53,-51.25 25.82,0 48.52,6.129 68.13,18.438 l 0,-52.348 c -21.68,-11.68 -49.92,-17.5 -84.69,-17.5 -37.93,0 -67.34,10.508 -88.28,31.559 -20.94,21.019 -31.41,50.39 -31.41,88.128 0,38.942 11.29,69.84 33.91,92.661 22.7,22.812 50.55,34.211 83.59,34.211 34.26,0 60.78,-10.231 79.53,-30.622 18.75,-20.308 28.13,-47.929 28.13,-82.808 l 0,-30.469 z m -67.34,44.527 c 0,33.633 -13.6,50.473 -40.79,50.473 -11.68,0 -21.79,-4.851 -30.31,-14.531 -8.44,-9.61 -13.55,-21.57 -15.31,-35.942 l 86.41,0 z m 337.22,-141.41 -72.34,0 0,130.633 c 0,36.328 -12.97,54.527 -38.91,54.527 -12.61,0 -22.97,-4.839 -31.09,-14.527 -8.13,-9.609 -12.19,-21.801 -12.19,-36.562 l 0,-134.071 -72.5,0 0,235 72.5,0 0,-37.179 0.94,0 c 17.26,28.632 42.5,42.961 75.62,42.961 51.96,0 77.97,-32.301 77.97,-96.872 l 0,-143.91 z m 424.03,268.75 -93.91,0 0,-268.75 -74.38,0 0,268.75 -93.28,0 0,60.321 261.57,0 0,-60.321 z M 2500,285.871 l -153.44,0 c 2.5,-34.18 23.99,-51.25 64.53,-51.25 25.82,0 48.52,6.129 68.13,18.438 l 0,-52.348 c -21.68,-11.68 -49.92,-17.5 -84.69,-17.5 -37.93,0 -67.34,10.508 -88.28,31.559 -20.94,21.019 -31.41,50.39 -31.41,88.128 0,38.942 11.29,69.84 33.91,92.661 22.7,22.812 50.55,34.211 83.59,34.211 34.26,0 60.78,-10.231 79.54,-30.622 18.74,-20.308 28.12,-47.929 28.12,-82.808 l 0,-30.469 z m -67.34,44.527 c 0,33.633 -13.6,50.473 -40.78,50.473 -11.68,0 -21.8,-4.851 -30.32,-14.531 -8.44,-9.61 -13.55,-21.57 -15.31,-35.942 l 86.41,0 z M 2720.94,197.43 c -16.37,-9.45 -40,-14.219 -70.94,-14.219 -36.05,0 -65.27,10.937 -87.66,32.809 -22.3,21.878 -33.43,50.082 -33.43,84.691 0,40 11.91,71.488 35.78,94.527 23.94,23.012 55.97,34.532 96.09,34.532 27.7,0 47.74,-3.711 60.16,-11.09 l 0,-61.41 c -15.12,11.25 -31.99,16.878 -50.63,16.878 -20.86,0 -37.34,-6.089 -49.53,-18.277 -12.19,-12.109 -18.28,-28.871 -18.28,-50.312 0,-20.86 5.78,-37.188 17.34,-49.071 11.64,-11.789 27.7,-17.648 48.13,-17.648 18.01,0 35.66,5.621 52.97,16.871 l 0,-58.281 z m 273.16,-8.442 -72.34,0 0,133.602 c 0,34.371 -12.5,51.558 -37.5,51.558 -12.93,0 -23.4,-4.839 -31.41,-14.527 -7.93,-9.609 -11.87,-21.801 -11.87,-36.562 l 0,-134.071 -72.5,0 0,347.973 72.5,0 0,-147.813 0.93,0 c 17.82,27.071 41.92,40.622 72.35,40.622 53.2,0 79.84,-32.141 79.84,-96.399 l 0,-144.383 z m 283.95,0 -72.35,0 0,130.633 c 0,36.328 -12.97,54.527 -38.9,54.527 -12.62,0 -22.97,-4.839 -31.1,-14.527 -8.12,-9.609 -12.18,-21.801 -12.18,-36.562 l 0,-134.071 -72.5,0 0,235 72.5,0 0,-37.179 0.93,0 c 17.27,28.632 42.5,42.961 75.63,42.961 51.95,0 77.97,-32.301 77.97,-96.872 l 0,-143.91 z m 168.43,-5.777 c -39.18,0 -69.96,10.98 -92.34,32.969 -22.42,21.949 -33.59,51.761 -33.59,89.379 0,38.82 11.6,69.25 34.84,91.25 23.2,21.953 54.69,32.961 94.38,32.961 38.94,0 69.53,-11.008 91.71,-32.961 22.19,-22 33.29,-51.02 33.29,-87.039 0,-39.059 -11.49,-69.961 -34.38,-92.649 -22.81,-22.621 -54.14,-33.91 -93.91,-33.91 z m 1.88,190.937 c -17.19,0 -30.55,-5.898 -40,-17.66 -9.49,-11.789 -14.22,-28.429 -14.22,-50 0,-45.109 18.2,-67.648 54.69,-67.648 34.69,0 52.03,23.16 52.03,69.531 0,43.828 -17.5,65.777 -52.5,65.777 z m 245.7,-185.16 -72.5,0 0,347.973 72.5,0 0,-347.973 z m 172.54,-5.777 c -39.18,0 -69.96,10.98 -92.34,32.969 -22.42,21.949 -33.6,51.761 -33.6,89.379 0,38.82 11.61,69.25 34.85,91.25 23.2,21.953 54.69,32.961 94.37,32.961 38.95,0 69.53,-11.008 91.72,-32.961 22.19,-22 33.28,-51.02 33.28,-87.039 0,-39.059 -11.48,-69.961 -34.37,-92.649 -22.81,-22.621 -54.14,-33.91 -93.91,-33.91 z m 1.88,190.937 c -17.19,0 -30.55,-5.898 -40,-17.66 -9.5,-11.789 -14.22,-28.429 -14.22,-50 0,-45.109 18.2,-67.648 54.69,-67.648 34.68,0 52.03,23.16 52.03,69.531 0,43.828 -17.5,65.777 -52.5,65.777 z m 403.63,-158.277 c 0,-43.641 -12.66,-77.391 -37.97,-101.25 -25.23,-23.9491 -61.72,-35.9413 -109.53,-35.9413 -31.68,0 -56.8,4.4922 -75.31,13.4414 l 0,61.0899 c 24.14,-14.063 48.51,-21.09 73.12,-21.09 24.46,0 43.44,6.481 56.88,19.367 13.51,12.934 20.31,30.473 20.31,52.66 l 0,18.59 -0.94,0 c -16.56,-26.359 -41.01,-39.527 -73.28,-39.527 -29.92,0 -53.67,10.551 -71.25,31.719 -17.62,21.129 -26.41,49.41 -26.41,84.84 0,39.769 9.77,71.41 29.38,94.851 19.57,23.438 45.35,35.149 77.34,35.149 28.52,0 49.93,-11.051 64.22,-33.122 l 0.94,0 0,27.34 72.5,0 0,-208.117 z m -71.56,86.09 0,18.598 c 0,14.761 -4.46,27.382 -13.28,37.812 -8.75,10.508 -20.16,15.777 -34.22,15.777 -16.17,0 -28.83,-6.328 -37.97,-18.91 -9.18,-12.5 -13.75,-30.109 -13.75,-52.808 0,-19.61 4.37,-35.121 13.12,-46.559 8.75,-11.371 20.67,-17.031 35.78,-17.031 15,0 27.11,5.781 36.41,17.34 9.26,11.558 13.91,26.8 13.91,45.781 z m 355.62,122.027 -95.47,-253.75 c -22.93,-61.008 -57.46,-91.5583 -103.59,-91.5583 -17.62,0 -32.11,1.9922 -43.44,5.9414 l 0,57.8089 c 9.57,-5.7 20.04,-8.59 31.41,-8.59 18.63,0 31.64,8.82 39.06,26.398 l 12.34,29.223 -95.46,234.527 80.31,0 43.9,-142.968 c 2.7,-8.86 4.85,-19.329 6.41,-31.399 l 0.94,0 c 1.33,8.828 3.83,19.141 7.5,30.938 l 44.37,143.429"
         inkscape:connector-curvature="0"
         id="path18"
         style="fill:#595959;fill-opacity:1;fill-rule:nonzero;stroke:none" /></g></g></svg>