<?xml version="1.0" encoding="utf-8"?>
<!-- Generator: Adobe Illustrator 19.0.0, SVG Export Plug-In . SVG Version: 6.00 Build 0)  -->
<svg version="1.1" id="Layer_1" xmlns="http://www.w3.org/2000/svg" xmlns:xlink="http://www.w3.org/1999/xlink" x="0px" y="0px"
	 viewBox="0 0 234.1 118.4" style="enable-background:new 0 0 234.1 118.4;" xml:space="preserve">
<style type="text/css">
	.st0{fill:#E49D20;}
	.st1{fill:#919396;}
</style>
<g>
	<g>
		<path class="st0" d="M95.4,92c0,0,20.8-23.6,44.1-13.8c0,0-9.6-19-43.2,1.7c0,0-15.2-26.6-19.4-34.4l-5.8,3.3L95.4,92z"/>
		<path class="st1" d="M140.4,78.3c0,0-12-22.4-40.9-4.3L81.4,41l5.9-4.3c0,0,6,15.2,15.2,30.4C102.5,67,130.4,54,140.4,78.3z"/>
		<path class="st0" d="M105.7,58.5L92.3,34.8c0,0,51.2,2.9,48.6,43.6C140.9,78.4,139.5,55.4,105.7,58.5z"/>
	</g>
	<path class="st0" d="M110.8,24.4l0.4,10.9c-2.9-1-5.7-1.7-8.2-2.2l-0.3-8.6L110.8,24.4z"/>
	<path class="st1" d="M122.7,18.3l0.4,22c-2.7-1.5-5.5-2.7-8.2-3.7l-0.4-18.2L122.7,18.3z"/>
	<path class="st1" d="M116.2,0.4C93.3,0.7,74.4,19.8,73,40.5l1.6-1l3.5-2.6c3.7-18.1,19.3-31.8,38.1-32c2.8,0,5.6,0.2,8.2,0.8l0-4.5
		C121.7,0.6,119,0.4,116.2,0.4z"/>
	<path class="st0" d="M140.2,7.5c-1.2-0.8-2.5-1.5-3.8-2.2l0-0.1c-2.6-1.4-5.3-2.5-8.2-3.3l0,4.8l0.1,36.1c2.9,1.8,5.7,4,8.2,6.6
		l-0.2-38.8l0-3.1l0,3c1.3,0.8,2.6,1.6,3.8,2.6c9.5,7.3,15.7,18.8,15.9,31.8c0.1,10.4-3.7,20-10,27.3c0.1,2,0.2,4.1,0,6.3
		c8.9-8.3,14.5-20.3,14.4-33.6C160.3,29,152.2,15.3,140.2,7.5z"/>
	<path d="M145.6,78.8C145.7,78.7,145.7,78.7,145.6,78.8L145.6,78.8L145.6,78.8z"/>
</g>
<g>
	<path class="st0" d="M2.9,106.8c0-3.6,0-4.2,0-5c0-0.8-0.2-1.2-1-1.3c-0.1,0-0.4,0-0.6,0c-0.2,0-0.4,0-0.4-0.2
		c0-0.1,0.1-0.2,0.4-0.2c0.9,0,1.7,0.1,2.6,0.1c0.5,0,5.1,0,5.6,0c0.5,0,0.9,0,1.1-0.1c0.1,0,0.2-0.1,0.2-0.1c0.1,0,0.1,0.1,0.1,0.2
		c0,0.1-0.1,0.4-0.1,0.7c-0.1,0.7-0.1,1-0.1,1.7c0,0.3-0.1,0.5-0.2,0.5c-0.1,0-0.1-0.1-0.2-0.3c0-0.3-0.1-0.9-0.4-1.1
		c-0.3-0.2-0.7-0.4-1.3-0.4c-1.2,0-2.3,0-3.5-0.1c-0.1,0-0.2,0.1-0.2,0.3v6.3c0,0.1,0,0.2,0.2,0.2c0.9,0,2.2,0,3.1,0
		c1.2,0,1.5,0,1.8-0.4c0.1-0.1,0.2-0.2,0.2-0.2c0.1,0,0.1,0.1,0.1,0.2c0,0.1-0.1,0.5-0.2,1.3c-0.1,0.7-0.1,1.2-0.1,1.6
		c0,0.3,0,0.4-0.2,0.4c-0.1,0-0.2-0.2-0.2-0.4c0-0.5-0.1-1.3-1.3-1.5c-0.6-0.1-3-0.1-3.4-0.1c-0.1,0-0.2,0-0.2,0.2v2
		c0,2,0,3.6,0.1,4.6c0.1,1,0.3,1.5,0.9,1.6c0.3,0,0.7,0.1,0.9,0.1c0.2,0,0.3,0.1,0.3,0.2c0,0.1-0.1,0.2-0.4,0.2
		c-1.3,0-2.7-0.1-2.8-0.1H3.6c-0.5,0-1.5,0.1-2,0.1c-0.2,0-0.4,0-0.4-0.2c0-0.1,0-0.1,0.2-0.1c0.2,0,0.4,0,0.6-0.1
		c0.5-0.1,0.6-0.5,0.7-1.5c0.1-1,0.1-2.6,0.1-4.8V106.8z"/>
	<path class="st0" d="M15,108.4c0-3,0-3.6,0-4.2c0-0.6-0.2-1-0.7-1.1c-0.2,0-0.4,0-0.5-0.1c-0.2,0-0.2-0.1-0.2-0.2
		c0-0.1,0.1-0.2,0.3-0.2c0.7,0,2,0.1,2.1,0.1c0.1,0,1.4-0.1,2-0.1c0.2,0,0.3,0,0.3,0.2c0,0.1-0.1,0.1-0.2,0.2c-0.1,0-0.2,0-0.4,0
		c-0.7,0.1-0.7,0.4-0.8,1.1c0,0.6,0,1.1,0,4.2v3.4c0,1.8,0,3.4,0.1,4.2c0.1,0.7,0.2,0.9,0.8,1.1c0.3,0.1,0.8,0.1,0.9,0.1
		c0.2,0,0.2,0.1,0.2,0.2s-0.1,0.2-0.3,0.2c-1.2,0-2.5-0.1-2.6-0.1c-0.1,0-1.4,0.1-2,0.1c-0.2,0-0.4,0-0.4-0.2c0-0.1,0.1-0.2,0.3-0.2
		c0.1,0,0.4,0,0.5-0.1c0.4-0.1,0.5-0.6,0.5-1.1c0.1-0.8,0.1-2.5,0.1-4.2V108.4z"/>
	<path class="st0" d="M23.3,103.4c0-0.7,0.1-0.9,0.2-0.9c0.2,0,0.5,0.5,0.7,0.6c0.2,0.2,3.4,3.5,6.5,6.8c1.8,1.7,4,4.1,4.6,4.7
		l-0.2-9.6c0-1.2-0.2-1.7-0.8-1.8c-0.4-0.1-0.7-0.1-0.9-0.1c-0.2,0-0.3-0.1-0.3-0.2c0-0.1,0.2-0.1,0.4-0.1c1,0,1.9,0.1,2.1,0.1
		c0.2,0,0.9-0.1,1.8-0.1c0.2,0,0.3,0,0.3,0.1c0,0.1-0.1,0.2-0.2,0.2c-0.1,0-0.3,0-0.6,0.1c-0.5,0.1-0.7,0.3-0.7,1.7l0,11.5
		c0,1.1,0,1.3-0.2,1.3s-0.4-0.2-1.5-1.2c-0.1,0-3.2-3.2-5.2-5.2c-2.4-2.5-4.6-4.9-5.2-5.5l0.3,9c0,1.6,0.2,2.2,0.7,2.3
		c0.4,0.1,0.7,0.1,0.9,0.1s0.3,0.1,0.3,0.2c0,0.1-0.1,0.2-0.4,0.2c-1.2,0-2-0.1-2.2-0.1s-1,0.1-2,0.1c-0.2,0-0.3,0-0.3-0.2
		c0-0.1,0.1-0.2,0.3-0.2c0.2,0,0.4,0,0.7-0.1c0.5-0.2,0.6-0.8,0.6-2.5C23.3,103.6,23.3,107.2,23.3,103.4z"/>
	<path class="st0" d="M43.9,111.9c-0.1,0-0.2,0.1-0.2,0.2l-1,2.9c-0.2,0.6-0.4,1.3-0.4,1.6c0,0.4,0.2,0.6,0.7,0.6c0.1,0,0.1,0,0.2,0
		c0.2,0,0.3,0.1,0.3,0.2c0,0.1-0.2,0.2-0.3,0.2c-0.5,0-1.5-0.1-1.8-0.1c-0.2,0-1.2,0.1-2.2,0.1c-0.2,0-0.4,0-0.4-0.2
		c0-0.1,0.1-0.2,0.3-0.2c0.1,0,0.3,0,0.5,0c1-0.1,1.4-0.9,1.7-1.8l4.5-12.1c0.2-0.7,0.3-0.8,0.5-0.8c0.1,0,0.2,0.1,0.5,0.7
		c0.3,0.8,3.4,8.8,4.6,11.7c0.7,1.8,1.4,2.1,1.7,2.2c0.3,0.1,0.6,0.1,0.8,0.1s0.3,0,0.3,0.2s-0.1,0.2-0.3,0.2c-0.2,0-1.9,0-3.4,0
		c-0.4,0-0.6,0-0.6-0.2c0-0.1,0.1-0.1,0.2-0.2c0.1,0,0.2-0.2,0.1-0.5l-1.8-4.6c0-0.1-0.1-0.1-0.2-0.1H43.9z M47.8,111.1
		c0.1,0,0.1-0.1,0.1-0.1l-1.8-5.1c-0.1-0.3-0.1-0.3-0.2,0l-1.7,5.1c0,0.1,0,0.1,0,0.1H47.8z"/>
	<path class="st0" d="M56.3,103.4c0-0.7,0.1-0.9,0.2-0.9c0.2,0,0.5,0.5,0.7,0.6c0.2,0.2,3.4,3.5,6.5,6.8c1.8,1.7,4,4.1,4.6,4.7
		l-0.2-9.6c0-1.2-0.2-1.7-0.8-1.8c-0.4-0.1-0.7-0.1-0.9-0.1c-0.2,0-0.3-0.1-0.3-0.2c0-0.1,0.2-0.1,0.4-0.1c1,0,1.9,0.1,2.1,0.1
		c0.2,0,0.9-0.1,1.8-0.1c0.2,0,0.3,0,0.3,0.1c0,0.1-0.1,0.2-0.2,0.2c-0.1,0-0.3,0-0.6,0.1c-0.5,0.1-0.7,0.3-0.7,1.7l0,11.5
		c0,1.1,0,1.3-0.2,1.3s-0.4-0.2-1.5-1.2c-0.1,0-3.2-3.2-5.2-5.2c-2.4-2.5-4.6-4.9-5.2-5.5l0.3,9c0,1.6,0.2,2.2,0.7,2.3
		c0.4,0.1,0.7,0.1,0.9,0.1s0.3,0.1,0.3,0.2c0,0.1-0.1,0.2-0.4,0.2c-1.2,0-2-0.1-2.2-0.1s-1,0.1-2,0.1c-0.2,0-0.3,0-0.3-0.2
		c0-0.1,0.1-0.2,0.3-0.2c0.2,0,0.4,0,0.7-0.1c0.5-0.2,0.6-0.8,0.6-2.5C56.3,103.6,56.3,107.2,56.3,103.4z"/>
	<path class="st0" d="M76,115.6c-1.9-1.7-2.4-4-2.4-5.9c0-1.3,0.5-3.6,2.3-5.3c1.2-1.2,3.1-2,6.1-2c1,0,1.9,0.1,3,0.3
		c0.7,0.1,1.5,0.2,2,0.3c0.2,0,0.2,0.1,0.2,0.2c0,0.2-0.1,0.4-0.1,1.1c0,0.6,0,1.8,0,2.1c0,0.3-0.1,0.4-0.2,0.4
		c-0.2,0-0.2-0.1-0.2-0.4c0-0.7-0.3-1.6-0.9-2c-0.7-0.6-2.3-1.2-4-1.2c-2.5,0-3.7,0.7-4.4,1.3c-1.5,1.4-1.8,3-1.8,5
		c0,3.8,3.1,7.2,7,7.2c1.5,0,2.7-0.2,3.5-0.9c0.4-0.4,0.6-1,0.7-1.7c0-0.2,0.1-0.3,0.2-0.3c0.1,0,0.1,0.2,0.1,0.3
		c0,0.2-0.3,2-0.5,2.6c-0.1,0.4-0.2,0.4-0.5,0.6c-0.8,0.3-2.3,0.5-3.6,0.5C79.7,117.7,77.7,117,76,115.6z"/>
	<path class="st0" d="M91.7,108.4c0-3,0-3.6,0-4.2c0-0.6-0.2-1-0.7-1.1c-0.2,0-0.4,0-0.5-0.1c-0.2,0-0.2-0.1-0.2-0.2
		c0-0.1,0.1-0.2,0.3-0.2c0.7,0,2,0.1,2.1,0.1c0.1,0,1.4-0.1,2-0.1c0.2,0,0.3,0,0.3,0.2c0,0.1-0.1,0.1-0.2,0.2c-0.1,0-0.2,0-0.4,0
		c-0.7,0.1-0.7,0.4-0.8,1.1c0,0.6,0,1.1,0,4.2v3.4c0,1.8,0,3.4,0.1,4.2c0.1,0.7,0.2,0.9,0.8,1.1c0.3,0.1,0.8,0.1,0.9,0.1
		c0.2,0,0.2,0.1,0.2,0.2s-0.1,0.2-0.3,0.2c-1.2,0-2.5-0.1-2.6-0.1c-0.1,0-1.4,0.1-2,0.1c-0.2,0-0.4,0-0.4-0.2c0-0.1,0.1-0.2,0.3-0.2
		c0.1,0,0.4,0,0.5-0.1c0.4-0.1,0.5-0.6,0.5-1.1c0.1-0.8,0.1-2.5,0.1-4.2V108.4z"/>
	<path class="st0" d="M101.6,111.9c-0.1,0-0.2,0.1-0.2,0.2l-1,2.9c-0.2,0.6-0.4,1.3-0.4,1.6c0,0.4,0.2,0.6,0.7,0.6
		c0.1,0,0.1,0,0.2,0c0.2,0,0.3,0.1,0.3,0.2c0,0.1-0.2,0.2-0.3,0.2c-0.5,0-1.5-0.1-1.8-0.1c-0.2,0-1.2,0.1-2.2,0.1
		c-0.2,0-0.4,0-0.4-0.2c0-0.1,0.1-0.2,0.3-0.2c0.1,0,0.3,0,0.5,0c1-0.1,1.4-0.9,1.7-1.8l4.5-12.1c0.2-0.7,0.3-0.8,0.5-0.8
		c0.1,0,0.2,0.1,0.5,0.7c0.3,0.8,3.4,8.8,4.6,11.7c0.7,1.8,1.4,2.1,1.7,2.2c0.3,0.1,0.6,0.1,0.8,0.1s0.3,0,0.3,0.2s-0.1,0.2-0.3,0.2
		c-0.2,0-1.9,0-3.4,0c-0.4,0-0.6,0-0.6-0.2c0-0.1,0.1-0.1,0.2-0.2c0.1,0,0.2-0.2,0.1-0.5l-1.8-4.6c0-0.1-0.1-0.1-0.2-0.1H101.6z
		 M105.5,111.1c0.1,0,0.1-0.1,0.1-0.1l-1.8-5.1c-0.1-0.3-0.1-0.3-0.2,0l-1.7,5.1c0,0.1,0,0.1,0,0.1H105.5z"/>
	<path class="st0" d="M116.4,111.9c0,2.6,0.1,4,0.5,4.3c0.4,0.3,0.8,0.5,2.4,0.5c1,0,1.9,0,2.4-0.6c0.2-0.3,0.4-0.8,0.4-1.2
		c0-0.2,0.1-0.3,0.2-0.3c0.1,0,0.1,0.1,0.1,0.3c0,0.2-0.1,1.5-0.3,2.1c-0.1,0.5-0.1,0.6-1.2,0.6c-1.5,0-3.2-0.1-5.5-0.1
		c-0.7,0-1.2,0.1-2,0.1c-0.2,0-0.4,0-0.4-0.2c0-0.1,0.1-0.1,0.2-0.1s0.4,0,0.5,0c0.4-0.1,0.5-0.5,0.6-1.1c0.1-0.9,0.1-2.5,0.1-4.2
		v-3.4c0-3,0-3.5,0-4.2c0-0.6-0.1-1.1-0.9-1.2c-0.1,0-0.4,0-0.6,0c-0.2,0-0.2-0.1-0.2-0.2c0-0.1,0.1-0.2,0.3-0.2
		c1,0,2.3,0.1,2.4,0.1c0.3,0,1.7-0.1,2.3-0.1c0.2,0,0.3,0.1,0.3,0.2s-0.1,0.2-0.2,0.2c-0.2,0-0.4,0-0.6,0c-0.6,0.1-0.8,0.5-0.8,1.1
		c0,0.6,0,1.1,0,4.2V111.9z"/>
	<path class="st1" d="M135.4,110.7c-0.1,0-0.2,0.1-0.2,0.2l-1.4,4.1c-0.2,0.6-0.3,1.1-0.3,1.5c0,0.5,0.4,0.7,0.8,0.7
		c0.1,0,0.1,0,0.2,0c0.2,0,0.3,0,0.3,0.1c0,0.1-0.2,0.2-0.4,0.2c-0.5,0-1.5-0.1-1.7-0.1c-0.3,0-1.5,0.1-2.6,0.1
		c-0.3,0-0.4,0-0.4-0.2c0-0.1,0.1-0.1,0.3-0.1c0.2,0,0.4,0,0.5,0c1-0.1,1.5-1,1.9-2.2l5.1-14.3c0.3-0.8,0.4-0.9,0.5-0.9
		s0.2,0.1,0.5,0.8c0.3,0.9,3.9,10.4,5.3,13.9c0.8,2,1.5,2.4,1.9,2.6c0.3,0.1,0.7,0.1,0.9,0.1c0.1,0,0.3,0,0.3,0.1
		c0,0.1-0.2,0.2-0.5,0.2c-0.3,0-2,0-3.6,0c-0.4,0-0.7,0-0.7-0.2c0-0.1,0.1-0.1,0.2-0.2c0.1,0,0.3-0.3,0.1-0.6l-2.1-5.7
		c0-0.1-0.1-0.1-0.2-0.1H135.4z M139.9,109.9c0.1,0,0.1-0.1,0.1-0.2l-2.2-6.2c-0.1-0.3-0.2-0.3-0.3,0l-2,6.2c0,0.1,0,0.2,0.1,0.2
		H139.9z"/>
	<path class="st1" d="M149.9,103.4c0-0.7,0.1-0.9,0.2-0.9c0.2,0,0.5,0.5,0.7,0.6c0.2,0.2,3.4,3.5,6.5,6.8c1.8,1.7,4,4.1,4.6,4.7
		l-0.2-9.6c0-1.2-0.2-1.7-0.8-1.8c-0.4-0.1-0.7-0.1-0.9-0.1c-0.2,0-0.3-0.1-0.3-0.2c0-0.1,0.2-0.1,0.4-0.1c1,0,1.9,0.1,2.1,0.1
		c0.2,0,0.9-0.1,1.8-0.1c0.2,0,0.3,0,0.3,0.1c0,0.1-0.1,0.2-0.2,0.2c-0.1,0-0.3,0-0.6,0.1c-0.5,0.1-0.7,0.3-0.7,1.7l0,11.5
		c0,1.1,0,1.3-0.2,1.3c-0.2,0-0.4-0.2-1.5-1.2c-0.1,0-3.2-3.2-5.2-5.2c-2.4-2.5-4.6-4.9-5.2-5.5l0.3,9c0,1.6,0.2,2.2,0.7,2.3
		c0.4,0.1,0.7,0.1,0.9,0.1c0.2,0,0.3,0.1,0.3,0.2c0,0.1-0.1,0.2-0.4,0.2c-1.2,0-2-0.1-2.2-0.1c-0.2,0-1,0.1-2,0.1
		c-0.2,0-0.3,0-0.3-0.2c0-0.1,0.1-0.2,0.3-0.2c0.2,0,0.4,0,0.7-0.1c0.5-0.2,0.6-0.8,0.6-2.5C149.9,103.6,149.9,107.2,149.9,103.4z"
		/>
	<path class="st1" d="M170.5,111.9c-0.1,0-0.2,0.1-0.2,0.2l-1,2.9c-0.2,0.6-0.4,1.3-0.4,1.6c0,0.4,0.2,0.6,0.7,0.6
		c0.1,0,0.1,0,0.2,0c0.2,0,0.3,0.1,0.3,0.2c0,0.1-0.2,0.2-0.3,0.2c-0.5,0-1.5-0.1-1.8-0.1c-0.2,0-1.2,0.1-2.2,0.1
		c-0.2,0-0.4,0-0.4-0.2c0-0.1,0.1-0.2,0.3-0.2c0.1,0,0.3,0,0.5,0c1-0.1,1.4-0.9,1.7-1.8l4.5-12.1c0.2-0.7,0.3-0.8,0.5-0.8
		c0.1,0,0.2,0.1,0.5,0.7c0.3,0.8,3.4,8.8,4.6,11.7c0.7,1.8,1.4,2.1,1.7,2.2c0.3,0.1,0.6,0.1,0.8,0.1c0.2,0,0.3,0,0.3,0.2
		s-0.1,0.2-0.3,0.2c-0.2,0-1.9,0-3.4,0c-0.4,0-0.6,0-0.6-0.2c0-0.1,0.1-0.1,0.2-0.2c0.1,0,0.2-0.2,0.1-0.5l-1.8-4.6
		c0-0.1-0.1-0.1-0.2-0.1H170.5z M174.4,111.1c0.1,0,0.1-0.1,0.1-0.1l-1.8-5.1c-0.1-0.3-0.1-0.3-0.2,0l-1.7,5.1c0,0.1,0,0.1,0,0.1
		H174.4z"/>
	<path class="st1" d="M185.3,111.9c0,2.6,0.1,4,0.5,4.3c0.4,0.3,0.8,0.5,2.4,0.5c1,0,1.9,0,2.4-0.6c0.2-0.3,0.4-0.8,0.4-1.2
		c0-0.2,0.1-0.3,0.2-0.3c0.1,0,0.1,0.1,0.1,0.3c0,0.2-0.1,1.5-0.3,2.1c-0.1,0.5-0.1,0.6-1.2,0.6c-1.5,0-3.2-0.1-5.5-0.1
		c-0.7,0-1.2,0.1-2,0.1c-0.2,0-0.4,0-0.4-0.2c0-0.1,0.1-0.1,0.2-0.1c0.2,0,0.4,0,0.5,0c0.4-0.1,0.5-0.5,0.6-1.1
		c0.1-0.9,0.1-2.5,0.1-4.2v-3.4c0-3,0-3.5,0-4.2c0-0.6-0.1-1.1-0.9-1.2c-0.1,0-0.4,0-0.6,0c-0.2,0-0.2-0.1-0.2-0.2
		c0-0.1,0.1-0.2,0.3-0.2c1,0,2.3,0.1,2.4,0.1c0.3,0,1.7-0.1,2.3-0.1c0.2,0,0.3,0.1,0.3,0.2s-0.1,0.2-0.3,0.2c-0.2,0-0.4,0-0.6,0
		c-0.6,0.1-0.8,0.5-0.8,1.1c0,0.6,0,1.1,0,4.2V111.9z"/>
	<path class="st1" d="M196.9,112.5c0-1.1-0.2-1.5-0.5-2.1c-0.1-0.3-2.8-4.6-3.5-5.6c-0.6-0.9-0.8-1.1-1.2-1.4
		c-0.3-0.2-0.6-0.3-1.1-0.3c-0.1,0-0.2-0.1-0.2-0.2c0-0.1,0.1-0.1,0.3-0.1c0.4,0,2.1,0.1,2.1,0.1c0.1,0,0.9-0.1,1.7-0.1
		c0.2,0,0.3,0.1,0.3,0.1c0,0.1-0.1,0.1-0.2,0.2c-0.3,0.1-0.4,0.2-0.4,0.4c0,0.2,0.1,0.5,0.3,0.8c0.3,0.6,3.3,5.5,3.6,6
		c0.4-0.8,2.9-5,3.2-5.6c0.4-0.8,0.5-1,0.5-1.2c0-0.3-0.3-0.3-0.5-0.3c-0.2,0-0.2-0.1-0.2-0.2c0-0.1,0-0.1,0.3-0.1
		c0.5,0,1,0.1,1.4,0.1c0.3,0,1.6-0.1,2-0.1c0.2,0,0.3,0.1,0.3,0.1c0,0.1-0.1,0.2-0.3,0.2c-0.5,0-0.8,0.1-1.1,0.3
		c-0.3,0.2-0.5,0.4-0.8,0.9c-1.3,1.8-3.5,5.6-3.9,6.4c-0.3,0.7-0.2,1.2-0.2,1.8v1.7c0,0.2,0,1,0,1.8c0,0.6,0.1,0.9,0.8,1.1
		c0.3,0.1,0.7,0.1,0.8,0.1c0.2,0,0.2,0.1,0.2,0.1c0,0.1-0.1,0.2-0.3,0.2c-1.1,0-2.5-0.1-2.6-0.1c0,0-1.4,0.1-2,0.1
		c-0.2,0-0.3-0.1-0.3-0.2c0-0.1,0.1-0.1,0.2-0.1c0.2,0,0.4,0,0.6-0.1c0.4-0.1,0.5-0.6,0.6-1.1c0.1-0.8,0.1-1.7,0.1-1.8V112.5z"/>
	<path class="st1" d="M206.6,117.2c-0.3-0.1-0.3-0.2-0.3-0.8c0-1.1,0.1-1.8,0.1-2.2c0-0.2,0.1-0.3,0.2-0.3s0.2,0.1,0.2,0.2
		c0,0.1,0,0.4,0.1,0.7c0.3,1.5,1.6,2.1,2.9,2.1c1.9,0,2.8-1.3,2.8-2.5c0-1.3-0.6-2.1-2.2-3.5l-0.9-0.7c-2.2-1.8-2.6-3-2.6-4.3
		c0-2.1,1.7-3.5,4.2-3.5c0.8,0,1.3,0.1,1.8,0.2c0.4,0.1,0.6,0.1,0.8,0.1s0.2,0,0.2,0.1s-0.1,0.9-0.1,2.2c0,0.3,0,0.5-0.2,0.5
		s-0.1-0.1-0.2-0.3c0-0.2-0.1-0.7-0.3-1.1c-0.1-0.2-0.6-1.1-2.5-1.1c-1.4,0-2.4,0.8-2.4,2.2c0,1.1,0.5,1.7,2.4,3.2l0.5,0.4
		c2.4,1.8,3,3.1,3,4.7c0,0.8-0.3,2.3-1.7,3.3c-0.9,0.6-2,0.8-3.1,0.8C208.3,117.7,207.4,117.6,206.6,117.2z"/>
	<path class="st1" d="M218.7,108.4c0-3,0-3.6,0-4.2c0-0.6-0.2-1-0.7-1.1c-0.2,0-0.4,0-0.5-0.1c-0.2,0-0.2-0.1-0.2-0.2
		c0-0.1,0.1-0.2,0.3-0.2c0.7,0,2,0.1,2.1,0.1c0.1,0,1.4-0.1,2-0.1c0.2,0,0.3,0,0.3,0.2c0,0.1-0.1,0.1-0.2,0.2c-0.1,0-0.2,0-0.4,0
		c-0.7,0.1-0.7,0.4-0.8,1.1c0,0.6,0,1.1,0,4.2v3.4c0,1.8,0,3.4,0.1,4.2c0.1,0.7,0.2,0.9,0.8,1.1c0.3,0.1,0.8,0.1,0.9,0.1
		c0.2,0,0.2,0.1,0.2,0.2s-0.1,0.2-0.3,0.2c-1.2,0-2.5-0.1-2.6-0.1c-0.1,0-1.4,0.1-2,0.1c-0.2,0-0.4,0-0.4-0.2c0-0.1,0.1-0.2,0.3-0.2
		c0.1,0,0.4,0,0.5-0.1c0.4-0.1,0.5-0.6,0.5-1.1c0.1-0.8,0.1-2.5,0.1-4.2V108.4z"/>
	<path class="st1" d="M226,117.2c-0.3-0.1-0.3-0.2-0.3-0.8c0-1.1,0.1-1.8,0.1-2.2c0-0.2,0.1-0.3,0.2-0.3s0.2,0.1,0.2,0.2
		c0,0.1,0,0.4,0.1,0.7c0.3,1.5,1.6,2.1,2.9,2.1c1.9,0,2.8-1.3,2.8-2.5c0-1.3-0.6-2.1-2.2-3.5l-0.9-0.7c-2.2-1.8-2.6-3-2.6-4.3
		c0-2.1,1.7-3.5,4.2-3.5c0.8,0,1.3,0.1,1.8,0.2c0.4,0.1,0.6,0.1,0.8,0.1c0.2,0,0.2,0,0.2,0.1s-0.1,0.9-0.1,2.2c0,0.3,0,0.5-0.2,0.5
		s-0.1-0.1-0.2-0.3c0-0.2-0.1-0.7-0.3-1.1c-0.1-0.2-0.6-1.1-2.5-1.1c-1.4,0-2.4,0.8-2.4,2.2c0,1.1,0.5,1.7,2.4,3.2l0.5,0.4
		c2.4,1.8,3,3.1,3,4.7c0,0.8-0.3,2.3-1.7,3.3c-0.9,0.6-2,0.8-3.1,0.8C227.8,117.7,226.9,117.6,226,117.2z"/>
</g>
<g>
</g>
<g>
</g>
<g>
</g>
<g>
</g>
<g>
</g>
<g>
</g>
</svg>
